<mxfile host="app.diagrams.net" agent="Mozilla/5.0 (Windows NT 10.0; Win64; x64) AppleWebKit/537.36 (KHTML, like Gecko) Chrome/132.0.0.0 Safari/537.36 Edg/132.0.0.0" version="26.0.11">
  <diagram name="第 1 页" id="D0PfmcyOCRA9JiAwxKCm">
    <mxGraphModel dx="1388" dy="629" grid="1" gridSize="10" guides="1" tooltips="1" connect="1" arrows="1" fold="1" page="1" pageScale="1" pageWidth="827" pageHeight="1169" math="0" shadow="0">
      <root>
        <mxCell id="0" />
        <mxCell id="1" parent="0" />
        <mxCell id="h8NUrK3ATLSKjU6YulBP-22" style="edgeStyle=orthogonalEdgeStyle;rounded=0;orthogonalLoop=1;jettySize=auto;html=1;exitX=0.5;exitY=0;exitDx=0;exitDy=0;" parent="1" source="h8NUrK3ATLSKjU6YulBP-17" edge="1">
          <mxGeometry relative="1" as="geometry">
            <mxPoint x="90.14285714285711" y="39.85714285714283" as="targetPoint" />
          </mxGeometry>
        </mxCell>
        <mxCell id="h8NUrK3ATLSKjU6YulBP-17" value="员工" style="rounded=0;whiteSpace=wrap;html=1;" parent="1" vertex="1">
          <mxGeometry x="30" y="20" width="120" height="70" as="geometry" />
        </mxCell>
        <mxCell id="h8NUrK3ATLSKjU6YulBP-18" value="项目负责人" style="rounded=0;whiteSpace=wrap;html=1;" parent="1" vertex="1">
          <mxGeometry x="30" y="100" width="120" height="60" as="geometry" />
        </mxCell>
        <mxCell id="h8NUrK3ATLSKjU6YulBP-33" style="edgeStyle=orthogonalEdgeStyle;rounded=0;orthogonalLoop=1;jettySize=auto;html=1;exitX=1;exitY=0.25;exitDx=0;exitDy=0;entryX=0;entryY=0.25;entryDx=0;entryDy=0;" parent="1" source="h8NUrK3ATLSKjU6YulBP-19" target="h8NUrK3ATLSKjU6YulBP-20" edge="1">
          <mxGeometry relative="1" as="geometry" />
        </mxCell>
        <mxCell id="h8NUrK3ATLSKjU6YulBP-37" style="edgeStyle=orthogonalEdgeStyle;rounded=0;orthogonalLoop=1;jettySize=auto;html=1;exitX=1;exitY=0.75;exitDx=0;exitDy=0;entryX=0;entryY=0.75;entryDx=0;entryDy=0;" parent="1" source="h8NUrK3ATLSKjU6YulBP-19" target="h8NUrK3ATLSKjU6YulBP-20" edge="1">
          <mxGeometry relative="1" as="geometry" />
        </mxCell>
        <mxCell id="h8NUrK3ATLSKjU6YulBP-40" style="edgeStyle=orthogonalEdgeStyle;rounded=0;orthogonalLoop=1;jettySize=auto;html=1;exitX=1;exitY=0.5;exitDx=0;exitDy=0;" parent="1" source="h8NUrK3ATLSKjU6YulBP-19" target="h8NUrK3ATLSKjU6YulBP-20" edge="1">
          <mxGeometry relative="1" as="geometry" />
        </mxCell>
        <mxCell id="h8NUrK3ATLSKjU6YulBP-19" value="WorkTime" style="rounded=1;whiteSpace=wrap;html=1;" parent="1" vertex="1">
          <mxGeometry x="240" y="10" width="120" height="230" as="geometry" />
        </mxCell>
        <mxCell id="h8NUrK3ATLSKjU6YulBP-20" value="管理面板" style="rounded=0;whiteSpace=wrap;html=1;" parent="1" vertex="1">
          <mxGeometry x="480" y="10" width="120" height="230" as="geometry" />
        </mxCell>
        <mxCell id="h8NUrK3ATLSKjU6YulBP-21" value="部门负责人" style="rounded=0;whiteSpace=wrap;html=1;" parent="1" vertex="1">
          <mxGeometry x="30" y="170" width="120" height="70" as="geometry" />
        </mxCell>
        <mxCell id="h8NUrK3ATLSKjU6YulBP-25" style="edgeStyle=orthogonalEdgeStyle;rounded=0;orthogonalLoop=1;jettySize=auto;html=1;exitX=1;exitY=0.25;exitDx=0;exitDy=0;" parent="1" source="h8NUrK3ATLSKjU6YulBP-18" edge="1">
          <mxGeometry relative="1" as="geometry">
            <mxPoint x="238" y="115" as="targetPoint" />
            <Array as="points">
              <mxPoint x="238" y="115" />
            </Array>
          </mxGeometry>
        </mxCell>
        <mxCell id="h8NUrK3ATLSKjU6YulBP-26" value="审批" style="text;html=1;align=center;verticalAlign=middle;resizable=0;points=[];autosize=1;strokeColor=none;fillColor=none;" parent="1" vertex="1">
          <mxGeometry x="165" y="90" width="50" height="30" as="geometry" />
        </mxCell>
        <mxCell id="h8NUrK3ATLSKjU6YulBP-28" style="edgeStyle=orthogonalEdgeStyle;rounded=0;orthogonalLoop=1;jettySize=auto;html=1;exitX=1;exitY=0.25;exitDx=0;exitDy=0;entryX=0.004;entryY=0.12;entryDx=0;entryDy=0;entryPerimeter=0;" parent="1" source="h8NUrK3ATLSKjU6YulBP-17" target="h8NUrK3ATLSKjU6YulBP-19" edge="1">
          <mxGeometry relative="1" as="geometry" />
        </mxCell>
        <mxCell id="h8NUrK3ATLSKjU6YulBP-29" value="提交工时" style="text;html=1;align=center;verticalAlign=middle;resizable=0;points=[];autosize=1;strokeColor=none;fillColor=none;" parent="1" vertex="1">
          <mxGeometry x="155" y="10" width="70" height="30" as="geometry" />
        </mxCell>
        <mxCell id="h8NUrK3ATLSKjU6YulBP-30" style="edgeStyle=orthogonalEdgeStyle;rounded=0;orthogonalLoop=1;jettySize=auto;html=1;exitX=1;exitY=0.25;exitDx=0;exitDy=0;entryX=-0.001;entryY=0.768;entryDx=0;entryDy=0;entryPerimeter=0;" parent="1" source="h8NUrK3ATLSKjU6YulBP-21" target="h8NUrK3ATLSKjU6YulBP-19" edge="1">
          <mxGeometry relative="1" as="geometry" />
        </mxCell>
        <mxCell id="h8NUrK3ATLSKjU6YulBP-31" value="审批" style="text;html=1;align=center;verticalAlign=middle;resizable=0;points=[];autosize=1;strokeColor=none;fillColor=none;" parent="1" vertex="1">
          <mxGeometry x="165" y="160" width="50" height="30" as="geometry" />
        </mxCell>
        <mxCell id="h8NUrK3ATLSKjU6YulBP-39" value="人员工时" style="text;html=1;align=center;verticalAlign=middle;resizable=0;points=[];autosize=1;strokeColor=none;fillColor=none;" parent="1" vertex="1">
          <mxGeometry x="379" y="40" width="70" height="30" as="geometry" />
        </mxCell>
        <mxCell id="h8NUrK3ATLSKjU6YulBP-41" value="项目管理" style="text;html=1;align=center;verticalAlign=middle;resizable=0;points=[];autosize=1;strokeColor=none;fillColor=none;" parent="1" vertex="1">
          <mxGeometry x="379" y="100" width="70" height="30" as="geometry" />
        </mxCell>
        <mxCell id="h8NUrK3ATLSKjU6YulBP-42" value="部门管理" style="text;html=1;align=center;verticalAlign=middle;resizable=0;points=[];autosize=1;strokeColor=none;fillColor=none;" parent="1" vertex="1">
          <mxGeometry x="379" y="160" width="70" height="30" as="geometry" />
        </mxCell>
        <mxCell id="x7l14iwA549RfiOkNvGw-38" style="edgeStyle=orthogonalEdgeStyle;rounded=0;orthogonalLoop=1;jettySize=auto;html=1;entryX=0.5;entryY=1;entryDx=0;entryDy=0;" edge="1" parent="1" source="x7l14iwA549RfiOkNvGw-2" target="x7l14iwA549RfiOkNvGw-7">
          <mxGeometry relative="1" as="geometry" />
        </mxCell>
        <mxCell id="x7l14iwA549RfiOkNvGw-40" style="edgeStyle=orthogonalEdgeStyle;rounded=0;orthogonalLoop=1;jettySize=auto;html=1;exitX=1;exitY=0.5;exitDx=0;exitDy=0;entryX=0.25;entryY=1;entryDx=0;entryDy=0;" edge="1" parent="1" source="x7l14iwA549RfiOkNvGw-2" target="x7l14iwA549RfiOkNvGw-16">
          <mxGeometry relative="1" as="geometry" />
        </mxCell>
        <mxCell id="x7l14iwA549RfiOkNvGw-2" value="员工" style="rounded=0;whiteSpace=wrap;html=1;" vertex="1" parent="1">
          <mxGeometry x="20" y="389.38" width="120" height="30" as="geometry" />
        </mxCell>
        <mxCell id="x7l14iwA549RfiOkNvGw-8" value="" style="group" vertex="1" connectable="0" parent="1">
          <mxGeometry x="225" y="320" width="122.5" height="165" as="geometry" />
        </mxCell>
        <mxCell id="x7l14iwA549RfiOkNvGw-5" value="" style="rounded=1;whiteSpace=wrap;html=1;" vertex="1" parent="x7l14iwA549RfiOkNvGw-8">
          <mxGeometry x="1.25" width="120" height="120" as="geometry" />
        </mxCell>
        <mxCell id="x7l14iwA549RfiOkNvGw-7" value="" style="shape=partialRectangle;whiteSpace=wrap;html=1;right=0;top=0;bottom=0;fillColor=none;routingCenterX=-0.5;rotation=90;" vertex="1" parent="x7l14iwA549RfiOkNvGw-8">
          <mxGeometry x="21.88" y="23.13" width="78.75" height="122.5" as="geometry" />
        </mxCell>
        <mxCell id="x7l14iwA549RfiOkNvGw-9" value="&lt;font style=&quot;font-size: 18px;&quot;&gt;1&lt;/font&gt;" style="text;html=1;align=center;verticalAlign=middle;resizable=0;points=[];autosize=1;strokeColor=none;fillColor=none;" vertex="1" parent="x7l14iwA549RfiOkNvGw-8">
          <mxGeometry x="46.25" y="5" width="30" height="40" as="geometry" />
        </mxCell>
        <mxCell id="x7l14iwA549RfiOkNvGw-10" value="提交工时" style="text;html=1;align=center;verticalAlign=middle;resizable=0;points=[];autosize=1;strokeColor=none;fillColor=none;" vertex="1" parent="x7l14iwA549RfiOkNvGw-8">
          <mxGeometry x="26.25" y="67.5" width="70" height="30" as="geometry" />
        </mxCell>
        <mxCell id="x7l14iwA549RfiOkNvGw-36" value="工时信息" style="text;html=1;align=center;verticalAlign=middle;resizable=0;points=[];autosize=1;strokeColor=none;fillColor=none;" vertex="1" parent="x7l14iwA549RfiOkNvGw-8">
          <mxGeometry x="52.5" y="128" width="70" height="30" as="geometry" />
        </mxCell>
        <mxCell id="x7l14iwA549RfiOkNvGw-14" value="" style="group" vertex="1" connectable="0" parent="1">
          <mxGeometry x="226.25" y="580" width="122.5" height="165" as="geometry" />
        </mxCell>
        <mxCell id="x7l14iwA549RfiOkNvGw-15" value="" style="rounded=1;whiteSpace=wrap;html=1;" vertex="1" parent="x7l14iwA549RfiOkNvGw-14">
          <mxGeometry x="1.25" width="120" height="120" as="geometry" />
        </mxCell>
        <mxCell id="x7l14iwA549RfiOkNvGw-16" value="" style="shape=partialRectangle;whiteSpace=wrap;html=1;right=0;top=0;bottom=0;fillColor=none;routingCenterX=-0.5;rotation=90;" vertex="1" parent="x7l14iwA549RfiOkNvGw-14">
          <mxGeometry x="1.25" y="43.75" width="120" height="122.5" as="geometry" />
        </mxCell>
        <mxCell id="x7l14iwA549RfiOkNvGw-17" value="&lt;font style=&quot;font-size: 18px;&quot;&gt;2&lt;/font&gt;" style="text;html=1;align=center;verticalAlign=middle;resizable=0;points=[];autosize=1;strokeColor=none;fillColor=none;" vertex="1" parent="x7l14iwA549RfiOkNvGw-14">
          <mxGeometry x="46.25" y="5" width="30" height="40" as="geometry" />
        </mxCell>
        <mxCell id="x7l14iwA549RfiOkNvGw-18" value="查询工时记录" style="text;html=1;align=center;verticalAlign=middle;resizable=0;points=[];autosize=1;strokeColor=none;fillColor=none;" vertex="1" parent="x7l14iwA549RfiOkNvGw-14">
          <mxGeometry x="11.25" y="67.5" width="100" height="30" as="geometry" />
        </mxCell>
        <mxCell id="x7l14iwA549RfiOkNvGw-27" value="" style="group" vertex="1" connectable="0" parent="1">
          <mxGeometry x="220" y="490" width="135" height="30" as="geometry" />
        </mxCell>
        <mxCell id="x7l14iwA549RfiOkNvGw-19" value="" style="shape=partialRectangle;whiteSpace=wrap;html=1;top=0;bottom=0;fillColor=none;rotation=-90;" vertex="1" parent="x7l14iwA549RfiOkNvGw-27">
          <mxGeometry x="52.5" y="-52.5" width="30" height="135" as="geometry" />
        </mxCell>
        <mxCell id="x7l14iwA549RfiOkNvGw-21" value="TimeCard" style="text;html=1;align=center;verticalAlign=middle;resizable=0;points=[];autosize=1;strokeColor=none;fillColor=none;" vertex="1" parent="x7l14iwA549RfiOkNvGw-27">
          <mxGeometry x="27.5" width="80" height="30" as="geometry" />
        </mxCell>
        <mxCell id="x7l14iwA549RfiOkNvGw-30" style="edgeStyle=orthogonalEdgeStyle;rounded=0;orthogonalLoop=1;jettySize=auto;html=1;" edge="1" parent="1" source="x7l14iwA549RfiOkNvGw-21" target="x7l14iwA549RfiOkNvGw-7">
          <mxGeometry relative="1" as="geometry">
            <Array as="points">
              <mxPoint x="290" y="450" />
              <mxPoint x="290" y="450" />
            </Array>
          </mxGeometry>
        </mxCell>
        <mxCell id="x7l14iwA549RfiOkNvGw-32" style="edgeStyle=orthogonalEdgeStyle;rounded=0;orthogonalLoop=1;jettySize=auto;html=1;entryX=0.486;entryY=0.044;entryDx=0;entryDy=0;entryPerimeter=0;" edge="1" parent="1" source="x7l14iwA549RfiOkNvGw-7" target="x7l14iwA549RfiOkNvGw-21">
          <mxGeometry relative="1" as="geometry" />
        </mxCell>
        <mxCell id="x7l14iwA549RfiOkNvGw-34" style="edgeStyle=orthogonalEdgeStyle;rounded=0;orthogonalLoop=1;jettySize=auto;html=1;entryX=0.462;entryY=0.933;entryDx=0;entryDy=0;entryPerimeter=0;" edge="1" parent="1">
          <mxGeometry relative="1" as="geometry">
            <mxPoint x="287.24" y="580" as="sourcePoint" />
            <mxPoint x="287.70000000000005" y="517.99" as="targetPoint" />
            <Array as="points">
              <mxPoint x="287.24" y="550" />
              <mxPoint x="288.24" y="550" />
            </Array>
          </mxGeometry>
        </mxCell>
        <mxCell id="x7l14iwA549RfiOkNvGw-35" style="edgeStyle=orthogonalEdgeStyle;rounded=0;orthogonalLoop=1;jettySize=auto;html=1;entryX=0.5;entryY=0;entryDx=0;entryDy=0;" edge="1" parent="1" source="x7l14iwA549RfiOkNvGw-21" target="x7l14iwA549RfiOkNvGw-15">
          <mxGeometry relative="1" as="geometry" />
        </mxCell>
        <mxCell id="x7l14iwA549RfiOkNvGw-37" value="工时信息" style="text;html=1;align=center;verticalAlign=middle;resizable=0;points=[];autosize=1;strokeColor=none;fillColor=none;" vertex="1" parent="1">
          <mxGeometry x="285" y="540" width="70" height="30" as="geometry" />
        </mxCell>
        <mxCell id="x7l14iwA549RfiOkNvGw-39" value="提交申请" style="text;html=1;align=center;verticalAlign=middle;resizable=0;points=[];autosize=1;strokeColor=none;fillColor=none;" vertex="1" parent="1">
          <mxGeometry x="150" y="380" width="70" height="30" as="geometry" />
        </mxCell>
        <mxCell id="x7l14iwA549RfiOkNvGw-41" value="查询申请" style="text;html=1;align=center;verticalAlign=middle;resizable=0;points=[];autosize=1;strokeColor=none;fillColor=none;" vertex="1" parent="1">
          <mxGeometry x="110" y="550" width="70" height="30" as="geometry" />
        </mxCell>
        <mxCell id="x7l14iwA549RfiOkNvGw-42" value="工时数据库" style="rounded=0;whiteSpace=wrap;html=1;" vertex="1" parent="1">
          <mxGeometry x="530" y="374.38" width="120" height="60" as="geometry" />
        </mxCell>
        <mxCell id="x7l14iwA549RfiOkNvGw-43" style="edgeStyle=orthogonalEdgeStyle;rounded=0;orthogonalLoop=1;jettySize=auto;html=1;exitX=0.5;exitY=0;exitDx=0;exitDy=0;entryX=0;entryY=0.5;entryDx=0;entryDy=0;" edge="1" parent="1" source="x7l14iwA549RfiOkNvGw-7" target="x7l14iwA549RfiOkNvGw-42">
          <mxGeometry relative="1" as="geometry" />
        </mxCell>
        <mxCell id="x7l14iwA549RfiOkNvGw-44" value="工时信息" style="text;html=1;align=center;verticalAlign=middle;resizable=0;points=[];autosize=1;strokeColor=none;fillColor=none;" vertex="1" parent="1">
          <mxGeometry x="410" y="374.38" width="70" height="30" as="geometry" />
        </mxCell>
        <mxCell id="x7l14iwA549RfiOkNvGw-63" style="edgeStyle=orthogonalEdgeStyle;rounded=0;orthogonalLoop=1;jettySize=auto;html=1;exitX=1;exitY=0.5;exitDx=0;exitDy=0;" edge="1" parent="1" source="x7l14iwA549RfiOkNvGw-45">
          <mxGeometry relative="1" as="geometry">
            <mxPoint x="230" y="750.1428571428571" as="targetPoint" />
          </mxGeometry>
        </mxCell>
        <mxCell id="x7l14iwA549RfiOkNvGw-45" value="项目负责人" style="rounded=0;whiteSpace=wrap;html=1;" vertex="1" parent="1">
          <mxGeometry x="20" y="730" width="120" height="40" as="geometry" />
        </mxCell>
        <mxCell id="x7l14iwA549RfiOkNvGw-46" value="" style="group" vertex="1" connectable="0" parent="1">
          <mxGeometry x="226.25" y="710" width="140.63" height="190" as="geometry" />
        </mxCell>
        <mxCell id="x7l14iwA549RfiOkNvGw-47" value="" style="rounded=1;whiteSpace=wrap;html=1;" vertex="1" parent="x7l14iwA549RfiOkNvGw-46">
          <mxGeometry x="1.25" width="120" height="120" as="geometry" />
        </mxCell>
        <mxCell id="x7l14iwA549RfiOkNvGw-48" value="" style="shape=partialRectangle;whiteSpace=wrap;html=1;right=0;top=0;bottom=0;fillColor=none;routingCenterX=-0.5;rotation=90;" vertex="1" parent="x7l14iwA549RfiOkNvGw-46">
          <mxGeometry x="1.25" y="43.75" width="120" height="122.5" as="geometry" />
        </mxCell>
        <mxCell id="x7l14iwA549RfiOkNvGw-49" value="&lt;font style=&quot;font-size: 18px;&quot;&gt;1&lt;/font&gt;" style="text;html=1;align=center;verticalAlign=middle;resizable=0;points=[];autosize=1;strokeColor=none;fillColor=none;" vertex="1" parent="x7l14iwA549RfiOkNvGw-46">
          <mxGeometry x="46.25" y="5" width="30" height="40" as="geometry" />
        </mxCell>
        <mxCell id="x7l14iwA549RfiOkNvGw-50" value="审批任务" style="text;html=1;align=center;verticalAlign=middle;resizable=0;points=[];autosize=1;strokeColor=none;fillColor=none;" vertex="1" parent="x7l14iwA549RfiOkNvGw-46">
          <mxGeometry x="26.25" y="67.5" width="70" height="30" as="geometry" />
        </mxCell>
        <mxCell id="x7l14iwA549RfiOkNvGw-62" value="工作流信息" style="text;html=1;align=center;verticalAlign=middle;resizable=0;points=[];autosize=1;strokeColor=none;fillColor=none;" vertex="1" parent="x7l14iwA549RfiOkNvGw-46">
          <mxGeometry x="58.75" y="130" width="80" height="30" as="geometry" />
        </mxCell>
        <mxCell id="x7l14iwA549RfiOkNvGw-54" value="" style="group" vertex="1" connectable="0" parent="x7l14iwA549RfiOkNvGw-46">
          <mxGeometry x="-6.8700000000000045" y="160" width="147.5" height="30" as="geometry" />
        </mxCell>
        <mxCell id="x7l14iwA549RfiOkNvGw-55" value="" style="shape=partialRectangle;whiteSpace=wrap;html=1;top=0;bottom=0;fillColor=none;rotation=-90;" vertex="1" parent="x7l14iwA549RfiOkNvGw-54">
          <mxGeometry x="52.5" y="-52.5" width="30" height="135" as="geometry" />
        </mxCell>
        <mxCell id="x7l14iwA549RfiOkNvGw-56" value="workflow_process_record" style="text;html=1;align=center;verticalAlign=middle;resizable=0;points=[];autosize=1;strokeColor=none;fillColor=none;" vertex="1" parent="x7l14iwA549RfiOkNvGw-54">
          <mxGeometry x="-12.5" width="160" height="30" as="geometry" />
        </mxCell>
        <mxCell id="x7l14iwA549RfiOkNvGw-60" style="edgeStyle=orthogonalEdgeStyle;rounded=0;orthogonalLoop=1;jettySize=auto;html=1;entryX=0.51;entryY=0.067;entryDx=0;entryDy=0;entryPerimeter=0;" edge="1" parent="x7l14iwA549RfiOkNvGw-46" source="x7l14iwA549RfiOkNvGw-47" target="x7l14iwA549RfiOkNvGw-56">
          <mxGeometry relative="1" as="geometry" />
        </mxCell>
        <mxCell id="x7l14iwA549RfiOkNvGw-59" value="" style="edgeStyle=orthogonalEdgeStyle;rounded=0;orthogonalLoop=1;jettySize=auto;html=1;" edge="1" parent="1" source="x7l14iwA549RfiOkNvGw-56">
          <mxGeometry relative="1" as="geometry">
            <mxPoint x="288" y="830" as="targetPoint" />
            <Array as="points">
              <mxPoint x="288" y="839" />
              <mxPoint x="288" y="839" />
            </Array>
          </mxGeometry>
        </mxCell>
        <mxCell id="x7l14iwA549RfiOkNvGw-65" value="TimeCard系统" style="rounded=1;whiteSpace=wrap;html=1;" vertex="1" parent="1">
          <mxGeometry x="278" y="960" width="152" height="460" as="geometry" />
        </mxCell>
        <mxCell id="x7l14iwA549RfiOkNvGw-66" value="员工" style="rounded=0;whiteSpace=wrap;html=1;" vertex="1" parent="1">
          <mxGeometry x="20" y="970" width="120" height="110" as="geometry" />
        </mxCell>
        <mxCell id="x7l14iwA549RfiOkNvGw-73" value="编辑时间卡" style="text;html=1;align=center;verticalAlign=middle;resizable=0;points=[];autosize=1;strokeColor=none;fillColor=none;" vertex="1" parent="1">
          <mxGeometry x="165" y="970" width="80" height="30" as="geometry" />
        </mxCell>
        <mxCell id="x7l14iwA549RfiOkNvGw-74" value="提交员工信息" style="text;html=1;align=center;verticalAlign=middle;resizable=0;points=[];autosize=1;strokeColor=none;fillColor=none;" vertex="1" parent="1">
          <mxGeometry x="155" y="1000" width="100" height="30" as="geometry" />
        </mxCell>
        <mxCell id="x7l14iwA549RfiOkNvGw-75" value="获取工作报表" style="text;html=1;align=center;verticalAlign=middle;resizable=0;points=[];autosize=1;strokeColor=none;fillColor=none;" vertex="1" parent="1">
          <mxGeometry x="155" y="1030" width="100" height="30" as="geometry" />
        </mxCell>
        <mxCell id="x7l14iwA549RfiOkNvGw-76" value="项目负责人" style="rounded=0;whiteSpace=wrap;html=1;" vertex="1" parent="1">
          <mxGeometry x="20" y="1090" width="120" height="170" as="geometry" />
        </mxCell>
        <mxCell id="x7l14iwA549RfiOkNvGw-77" value="部门负责人" style="rounded=0;whiteSpace=wrap;html=1;" vertex="1" parent="1">
          <mxGeometry x="20" y="1274" width="120" height="126" as="geometry" />
        </mxCell>
        <mxCell id="x7l14iwA549RfiOkNvGw-78" value="项目管理" style="text;html=1;align=center;verticalAlign=middle;resizable=0;points=[];autosize=1;strokeColor=none;fillColor=none;" vertex="1" parent="1">
          <mxGeometry x="170" y="1100" width="70" height="30" as="geometry" />
        </mxCell>
        <mxCell id="x7l14iwA549RfiOkNvGw-79" value="项目成员管理" style="text;html=1;align=center;verticalAlign=middle;resizable=0;points=[];autosize=1;strokeColor=none;fillColor=none;" vertex="1" parent="1">
          <mxGeometry x="155" y="1130" width="100" height="30" as="geometry" />
        </mxCell>
        <mxCell id="x7l14iwA549RfiOkNvGw-80" value="任务管理" style="text;html=1;align=center;verticalAlign=middle;resizable=0;points=[];autosize=1;strokeColor=none;fillColor=none;" vertex="1" parent="1">
          <mxGeometry x="170" y="1160" width="70" height="30" as="geometry" />
        </mxCell>
        <mxCell id="x7l14iwA549RfiOkNvGw-81" value="部门管理" style="text;html=1;align=center;verticalAlign=middle;resizable=0;points=[];autosize=1;strokeColor=none;fillColor=none;" vertex="1" parent="1">
          <mxGeometry x="170" y="1269" width="70" height="30" as="geometry" />
        </mxCell>
        <mxCell id="x7l14iwA549RfiOkNvGw-82" value="部门成员管理" style="text;html=1;align=center;verticalAlign=middle;resizable=0;points=[];autosize=1;strokeColor=none;fillColor=none;" vertex="1" parent="1">
          <mxGeometry x="155" y="1299" width="100" height="30" as="geometry" />
        </mxCell>
        <mxCell id="x7l14iwA549RfiOkNvGw-83" value="员工管理" style="text;html=1;align=center;verticalAlign=middle;resizable=0;points=[];autosize=1;strokeColor=none;fillColor=none;" vertex="1" parent="1">
          <mxGeometry x="170" y="1329" width="70" height="30" as="geometry" />
        </mxCell>
        <mxCell id="x7l14iwA549RfiOkNvGw-84" value="获取项目报表" style="text;html=1;align=center;verticalAlign=middle;resizable=0;points=[];autosize=1;strokeColor=none;fillColor=none;" vertex="1" parent="1">
          <mxGeometry x="155" y="1190" width="100" height="30" as="geometry" />
        </mxCell>
        <mxCell id="x7l14iwA549RfiOkNvGw-85" value="项目风险&amp;amp;行动管理" style="text;html=1;align=center;verticalAlign=middle;resizable=0;points=[];autosize=1;strokeColor=none;fillColor=none;" vertex="1" parent="1">
          <mxGeometry x="148" y="1220" width="130" height="30" as="geometry" />
        </mxCell>
        <mxCell id="x7l14iwA549RfiOkNvGw-86" value="获取部门报表" style="text;html=1;align=center;verticalAlign=middle;resizable=0;points=[];autosize=1;strokeColor=none;fillColor=none;" vertex="1" parent="1">
          <mxGeometry x="155" y="1359" width="100" height="30" as="geometry" />
        </mxCell>
        <mxCell id="x7l14iwA549RfiOkNvGw-87" value="" style="endArrow=classic;html=1;rounded=0;exitX=0.999;exitY=0.875;exitDx=0;exitDy=0;exitPerimeter=0;entryX=-0.016;entryY=0.921;entryDx=0;entryDy=0;entryPerimeter=0;" edge="1" parent="1" source="x7l14iwA549RfiOkNvGw-77" target="x7l14iwA549RfiOkNvGw-65">
          <mxGeometry width="50" height="50" relative="1" as="geometry">
            <mxPoint x="188" y="1399" as="sourcePoint" />
            <mxPoint x="278" y="1390" as="targetPoint" />
          </mxGeometry>
        </mxCell>
        <mxCell id="x7l14iwA549RfiOkNvGw-88" value="" style="endArrow=classic;html=1;rounded=0;exitX=0.983;exitY=0.645;exitDx=0;exitDy=0;exitPerimeter=0;entryX=-0.007;entryY=0.859;entryDx=0;entryDy=0;entryPerimeter=0;" edge="1" parent="1">
          <mxGeometry width="50" height="50" relative="1" as="geometry">
            <mxPoint x="140.00000000000003" y="1355.27" as="sourcePoint" />
            <mxPoint x="278.97599999999994" y="1355.1399999999999" as="targetPoint" />
            <Array as="points">
              <mxPoint x="182.04" y="1355" />
            </Array>
          </mxGeometry>
        </mxCell>
        <mxCell id="x7l14iwA549RfiOkNvGw-89" value="" style="endArrow=classic;html=1;rounded=0;exitX=0.983;exitY=0.645;exitDx=0;exitDy=0;exitPerimeter=0;entryX=-0.007;entryY=0.859;entryDx=0;entryDy=0;entryPerimeter=0;" edge="1" parent="1">
          <mxGeometry width="50" height="50" relative="1" as="geometry">
            <mxPoint x="140.00000000000003" y="1328.79" as="sourcePoint" />
            <mxPoint x="278.97599999999994" y="1328.6599999999999" as="targetPoint" />
            <Array as="points">
              <mxPoint x="182.04" y="1328.52" />
            </Array>
          </mxGeometry>
        </mxCell>
        <mxCell id="x7l14iwA549RfiOkNvGw-90" value="" style="endArrow=classic;html=1;rounded=0;exitX=0.983;exitY=0.645;exitDx=0;exitDy=0;exitPerimeter=0;entryX=-0.007;entryY=0.859;entryDx=0;entryDy=0;entryPerimeter=0;" edge="1" parent="1">
          <mxGeometry width="50" height="50" relative="1" as="geometry">
            <mxPoint x="139.02000000000004" y="1298.79" as="sourcePoint" />
            <mxPoint x="277.9959999999999" y="1298.6599999999999" as="targetPoint" />
            <Array as="points">
              <mxPoint x="181.06" y="1298.52" />
            </Array>
          </mxGeometry>
        </mxCell>
        <mxCell id="x7l14iwA549RfiOkNvGw-91" value="" style="endArrow=classic;html=1;rounded=0;exitX=0.999;exitY=0.875;exitDx=0;exitDy=0;exitPerimeter=0;entryX=-0.016;entryY=0.921;entryDx=0;entryDy=0;entryPerimeter=0;" edge="1" parent="1">
          <mxGeometry width="50" height="50" relative="1" as="geometry">
            <mxPoint x="140.98" y="1245.48" as="sourcePoint" />
            <mxPoint x="276.98" y="1245.48" as="targetPoint" />
          </mxGeometry>
        </mxCell>
        <mxCell id="x7l14iwA549RfiOkNvGw-92" value="" style="endArrow=classic;html=1;rounded=0;exitX=0.983;exitY=0.645;exitDx=0;exitDy=0;exitPerimeter=0;entryX=-0.007;entryY=0.859;entryDx=0;entryDy=0;entryPerimeter=0;" edge="1" parent="1">
          <mxGeometry width="50" height="50" relative="1" as="geometry">
            <mxPoint x="140.98000000000002" y="1216.75" as="sourcePoint" />
            <mxPoint x="279.95599999999996" y="1216.62" as="targetPoint" />
            <Array as="points">
              <mxPoint x="183.01999999999998" y="1216.48" />
            </Array>
          </mxGeometry>
        </mxCell>
        <mxCell id="x7l14iwA549RfiOkNvGw-93" value="" style="endArrow=classic;html=1;rounded=0;exitX=0.983;exitY=0.645;exitDx=0;exitDy=0;exitPerimeter=0;entryX=-0.007;entryY=0.859;entryDx=0;entryDy=0;entryPerimeter=0;" edge="1" parent="1">
          <mxGeometry width="50" height="50" relative="1" as="geometry">
            <mxPoint x="140.98000000000002" y="1190.27" as="sourcePoint" />
            <mxPoint x="279.95599999999996" y="1190.1399999999999" as="targetPoint" />
            <Array as="points">
              <mxPoint x="183.01999999999998" y="1190" />
            </Array>
          </mxGeometry>
        </mxCell>
        <mxCell id="x7l14iwA549RfiOkNvGw-94" value="" style="endArrow=classic;html=1;rounded=0;exitX=0.983;exitY=0.645;exitDx=0;exitDy=0;exitPerimeter=0;entryX=-0.007;entryY=0.859;entryDx=0;entryDy=0;entryPerimeter=0;" edge="1" parent="1">
          <mxGeometry width="50" height="50" relative="1" as="geometry">
            <mxPoint x="140.00000000000003" y="1160.27" as="sourcePoint" />
            <mxPoint x="278.97599999999994" y="1160.1399999999999" as="targetPoint" />
            <Array as="points">
              <mxPoint x="182.04" y="1160" />
            </Array>
          </mxGeometry>
        </mxCell>
        <mxCell id="x7l14iwA549RfiOkNvGw-95" value="" style="endArrow=classic;html=1;rounded=0;exitX=0.999;exitY=0.875;exitDx=0;exitDy=0;exitPerimeter=0;entryX=-0.016;entryY=0.921;entryDx=0;entryDy=0;entryPerimeter=0;" edge="1" parent="1">
          <mxGeometry width="50" height="50" relative="1" as="geometry">
            <mxPoint x="140" y="1130" as="sourcePoint" />
            <mxPoint x="276" y="1130" as="targetPoint" />
          </mxGeometry>
        </mxCell>
        <mxCell id="x7l14iwA549RfiOkNvGw-96" value="" style="endArrow=classic;html=1;rounded=0;exitX=0.983;exitY=0.645;exitDx=0;exitDy=0;exitPerimeter=0;entryX=-0.007;entryY=0.859;entryDx=0;entryDy=0;entryPerimeter=0;" edge="1" parent="1">
          <mxGeometry width="50" height="50" relative="1" as="geometry">
            <mxPoint x="140.98000000000002" y="1056.75" as="sourcePoint" />
            <mxPoint x="279.95599999999996" y="1056.62" as="targetPoint" />
            <Array as="points">
              <mxPoint x="183.01999999999998" y="1056.48" />
            </Array>
          </mxGeometry>
        </mxCell>
        <mxCell id="x7l14iwA549RfiOkNvGw-97" value="" style="endArrow=classic;html=1;rounded=0;exitX=0.983;exitY=0.645;exitDx=0;exitDy=0;exitPerimeter=0;entryX=-0.007;entryY=0.859;entryDx=0;entryDy=0;entryPerimeter=0;" edge="1" parent="1">
          <mxGeometry width="50" height="50" relative="1" as="geometry">
            <mxPoint x="140.98000000000002" y="1030.27" as="sourcePoint" />
            <mxPoint x="279.95599999999996" y="1030.1399999999999" as="targetPoint" />
            <Array as="points">
              <mxPoint x="183.01999999999998" y="1030" />
            </Array>
          </mxGeometry>
        </mxCell>
        <mxCell id="x7l14iwA549RfiOkNvGw-98" value="" style="endArrow=classic;html=1;rounded=0;exitX=0.983;exitY=0.645;exitDx=0;exitDy=0;exitPerimeter=0;entryX=-0.007;entryY=0.859;entryDx=0;entryDy=0;entryPerimeter=0;" edge="1" parent="1">
          <mxGeometry width="50" height="50" relative="1" as="geometry">
            <mxPoint x="140.00000000000003" y="1000.27" as="sourcePoint" />
            <mxPoint x="278.97599999999994" y="1000.1399999999999" as="targetPoint" />
            <Array as="points">
              <mxPoint x="182.04" y="1000" />
            </Array>
          </mxGeometry>
        </mxCell>
        <mxCell id="x7l14iwA549RfiOkNvGw-99" value="管理面板" style="rounded=0;whiteSpace=wrap;html=1;" vertex="1" parent="1">
          <mxGeometry x="560" y="1069" width="120" height="230" as="geometry" />
        </mxCell>
        <mxCell id="x7l14iwA549RfiOkNvGw-100" value="人员工时" style="text;html=1;align=center;verticalAlign=middle;resizable=0;points=[];autosize=1;strokeColor=none;fillColor=none;" vertex="1" parent="1">
          <mxGeometry x="449" y="1099" width="70" height="30" as="geometry" />
        </mxCell>
        <mxCell id="x7l14iwA549RfiOkNvGw-101" value="项目管理" style="text;html=1;align=center;verticalAlign=middle;resizable=0;points=[];autosize=1;strokeColor=none;fillColor=none;" vertex="1" parent="1">
          <mxGeometry x="449" y="1159" width="70" height="30" as="geometry" />
        </mxCell>
        <mxCell id="x7l14iwA549RfiOkNvGw-102" value="部门管理" style="text;html=1;align=center;verticalAlign=middle;resizable=0;points=[];autosize=1;strokeColor=none;fillColor=none;" vertex="1" parent="1">
          <mxGeometry x="449" y="1219" width="70" height="30" as="geometry" />
        </mxCell>
        <mxCell id="x7l14iwA549RfiOkNvGw-103" value="" style="endArrow=classic;html=1;rounded=0;exitX=0.999;exitY=0.875;exitDx=0;exitDy=0;exitPerimeter=0;" edge="1" parent="1">
          <mxGeometry width="50" height="50" relative="1" as="geometry">
            <mxPoint x="430" y="1129" as="sourcePoint" />
            <mxPoint x="560" y="1129" as="targetPoint" />
          </mxGeometry>
        </mxCell>
        <mxCell id="x7l14iwA549RfiOkNvGw-104" value="" style="endArrow=classic;html=1;rounded=0;exitX=0.999;exitY=0.875;exitDx=0;exitDy=0;exitPerimeter=0;" edge="1" parent="1">
          <mxGeometry width="50" height="50" relative="1" as="geometry">
            <mxPoint x="430" y="1183.76" as="sourcePoint" />
            <mxPoint x="560" y="1183.76" as="targetPoint" />
          </mxGeometry>
        </mxCell>
        <mxCell id="x7l14iwA549RfiOkNvGw-105" value="" style="endArrow=classic;html=1;rounded=0;exitX=0.999;exitY=0.875;exitDx=0;exitDy=0;exitPerimeter=0;" edge="1" parent="1">
          <mxGeometry width="50" height="50" relative="1" as="geometry">
            <mxPoint x="430" y="1249" as="sourcePoint" />
            <mxPoint x="560" y="1249" as="targetPoint" />
          </mxGeometry>
        </mxCell>
        <mxCell id="x7l14iwA549RfiOkNvGw-188" style="edgeStyle=orthogonalEdgeStyle;rounded=0;orthogonalLoop=1;jettySize=auto;html=1;exitX=1;exitY=0.5;exitDx=0;exitDy=0;entryX=0;entryY=0.5;entryDx=0;entryDy=0;" edge="1" parent="1" source="x7l14iwA549RfiOkNvGw-106" target="x7l14iwA549RfiOkNvGw-113">
          <mxGeometry relative="1" as="geometry" />
        </mxCell>
        <mxCell id="x7l14iwA549RfiOkNvGw-189" style="edgeStyle=orthogonalEdgeStyle;rounded=0;orthogonalLoop=1;jettySize=auto;html=1;exitX=0.75;exitY=1;exitDx=0;exitDy=0;entryX=0;entryY=0.25;entryDx=0;entryDy=0;" edge="1" parent="1" source="x7l14iwA549RfiOkNvGw-106" target="x7l14iwA549RfiOkNvGw-123">
          <mxGeometry relative="1" as="geometry" />
        </mxCell>
        <mxCell id="x7l14iwA549RfiOkNvGw-190" style="edgeStyle=orthogonalEdgeStyle;rounded=0;orthogonalLoop=1;jettySize=auto;html=1;exitX=0.5;exitY=1;exitDx=0;exitDy=0;entryX=0.5;entryY=0;entryDx=0;entryDy=0;" edge="1" parent="1" source="x7l14iwA549RfiOkNvGw-106" target="x7l14iwA549RfiOkNvGw-120">
          <mxGeometry relative="1" as="geometry" />
        </mxCell>
        <mxCell id="x7l14iwA549RfiOkNvGw-106" value="员工" style="rounded=0;whiteSpace=wrap;html=1;" vertex="1" parent="1">
          <mxGeometry x="20" y="1560" width="120" height="40" as="geometry" />
        </mxCell>
        <mxCell id="x7l14iwA549RfiOkNvGw-107" value="编辑时间卡请求" style="text;html=1;align=center;verticalAlign=middle;resizable=0;points=[];autosize=1;strokeColor=none;fillColor=none;" vertex="1" parent="1">
          <mxGeometry x="116.25" y="1520" width="110" height="30" as="geometry" />
        </mxCell>
        <mxCell id="x7l14iwA549RfiOkNvGw-108" value="提交员工信息" style="text;html=1;align=center;verticalAlign=middle;resizable=0;points=[];autosize=1;strokeColor=none;fillColor=none;" vertex="1" parent="1">
          <mxGeometry x="170" y="1856" width="100" height="30" as="geometry" />
        </mxCell>
        <mxCell id="x7l14iwA549RfiOkNvGw-109" value="获取工作报表" style="text;html=1;align=center;verticalAlign=middle;resizable=0;points=[];autosize=1;strokeColor=none;fillColor=none;" vertex="1" parent="1">
          <mxGeometry x="165" y="1660" width="100" height="30" as="geometry" />
        </mxCell>
        <mxCell id="x7l14iwA549RfiOkNvGw-113" value="&lt;div style=&quot;&quot;&gt;&lt;br&gt;&lt;/div&gt;" style="rounded=1;whiteSpace=wrap;html=1;align=center;" vertex="1" parent="1">
          <mxGeometry x="305" y="1475" width="120" height="75" as="geometry" />
        </mxCell>
        <mxCell id="x7l14iwA549RfiOkNvGw-114" value="" style="shape=partialRectangle;whiteSpace=wrap;html=1;right=0;top=0;bottom=0;fillColor=none;routingCenterX=-0.5;rotation=-90;" vertex="1" parent="1">
          <mxGeometry x="355" y="1430" width="20" height="120" as="geometry" />
        </mxCell>
        <mxCell id="x7l14iwA549RfiOkNvGw-115" value="1" style="text;html=1;align=center;verticalAlign=middle;resizable=0;points=[];autosize=1;strokeColor=none;fillColor=none;" vertex="1" parent="1">
          <mxGeometry x="345" y="1475" width="30" height="30" as="geometry" />
        </mxCell>
        <mxCell id="x7l14iwA549RfiOkNvGw-116" value="增删改查时间卡" style="text;html=1;align=center;verticalAlign=middle;resizable=0;points=[];autosize=1;strokeColor=none;fillColor=none;" vertex="1" parent="1">
          <mxGeometry x="310" y="1510" width="110" height="30" as="geometry" />
        </mxCell>
        <mxCell id="x7l14iwA549RfiOkNvGw-119" value="&lt;div style=&quot;&quot;&gt;&lt;br&gt;&lt;/div&gt;" style="rounded=1;whiteSpace=wrap;html=1;align=center;" vertex="1" parent="1">
          <mxGeometry x="305.0000000000002" y="1860" width="120" height="70" as="geometry" />
        </mxCell>
        <mxCell id="x7l14iwA549RfiOkNvGw-120" value="" style="shape=partialRectangle;whiteSpace=wrap;html=1;right=0;top=0;bottom=0;fillColor=none;routingCenterX=-0.5;rotation=-90;" vertex="1" parent="1">
          <mxGeometry x="355.0000000000002" y="1820" width="20" height="120" as="geometry" />
        </mxCell>
        <mxCell id="x7l14iwA549RfiOkNvGw-121" value="2" style="text;html=1;align=center;verticalAlign=middle;resizable=0;points=[];autosize=1;strokeColor=none;fillColor=none;" vertex="1" parent="1">
          <mxGeometry x="350.0000000000002" y="1860" width="30" height="30" as="geometry" />
        </mxCell>
        <mxCell id="x7l14iwA549RfiOkNvGw-122" value="修改个人信息" style="text;html=1;align=center;verticalAlign=middle;resizable=0;points=[];autosize=1;strokeColor=none;fillColor=none;" vertex="1" parent="1">
          <mxGeometry x="315.0000000000002" y="1895" width="100" height="30" as="geometry" />
        </mxCell>
        <mxCell id="x7l14iwA549RfiOkNvGw-186" style="edgeStyle=orthogonalEdgeStyle;rounded=0;orthogonalLoop=1;jettySize=auto;html=1;exitX=1;exitY=0.5;exitDx=0;exitDy=0;entryX=0.25;entryY=1;entryDx=0;entryDy=0;" edge="1" parent="1" source="x7l14iwA549RfiOkNvGw-123" target="x7l14iwA549RfiOkNvGw-176">
          <mxGeometry relative="1" as="geometry" />
        </mxCell>
        <mxCell id="x7l14iwA549RfiOkNvGw-123" value="&lt;div style=&quot;&quot;&gt;&lt;br&gt;&lt;/div&gt;" style="rounded=1;whiteSpace=wrap;html=1;align=center;" vertex="1" parent="1">
          <mxGeometry x="305.0000000000002" y="1674" width="120" height="70" as="geometry" />
        </mxCell>
        <mxCell id="x7l14iwA549RfiOkNvGw-124" value="" style="shape=partialRectangle;whiteSpace=wrap;html=1;right=0;top=0;bottom=0;fillColor=none;routingCenterX=-0.5;rotation=-90;" vertex="1" parent="1">
          <mxGeometry x="355.0000000000002" y="1634" width="20" height="120" as="geometry" />
        </mxCell>
        <mxCell id="x7l14iwA549RfiOkNvGw-125" value="3" style="text;html=1;align=center;verticalAlign=middle;resizable=0;points=[];autosize=1;strokeColor=none;fillColor=none;" vertex="1" parent="1">
          <mxGeometry x="350.0000000000002" y="1674" width="30" height="30" as="geometry" />
        </mxCell>
        <mxCell id="x7l14iwA549RfiOkNvGw-126" value="查看工作报表" style="text;html=1;align=center;verticalAlign=middle;resizable=0;points=[];autosize=1;strokeColor=none;fillColor=none;" vertex="1" parent="1">
          <mxGeometry x="315.0000000000002" y="1709" width="100" height="30" as="geometry" />
        </mxCell>
        <mxCell id="x7l14iwA549RfiOkNvGw-157" value="" style="group" vertex="1" connectable="0" parent="1">
          <mxGeometry x="290" y="1600" width="145.005" height="30.00999999999999" as="geometry" />
        </mxCell>
        <mxCell id="x7l14iwA549RfiOkNvGw-149" value="" style="shape=partialRectangle;whiteSpace=wrap;html=1;top=0;bottom=0;fillColor=none;rotation=-90;" vertex="1" parent="x7l14iwA549RfiOkNvGw-157">
          <mxGeometry x="60.629999999999995" y="-54.36999999999989" width="30" height="138.75" as="geometry" />
        </mxCell>
        <mxCell id="x7l14iwA549RfiOkNvGw-151" value="" style="shape=partialRectangle;whiteSpace=wrap;html=1;right=0;top=0;bottom=0;fillColor=none;routingCenterX=-0.5;" vertex="1" parent="x7l14iwA549RfiOkNvGw-157">
          <mxGeometry x="5" width="20" height="30" as="geometry" />
        </mxCell>
        <mxCell id="x7l14iwA549RfiOkNvGw-155" value="" style="shape=partialRectangle;whiteSpace=wrap;html=1;right=0;top=0;bottom=0;fillColor=none;routingCenterX=-0.5;" vertex="1" parent="x7l14iwA549RfiOkNvGw-157">
          <mxGeometry x="40" width="30" height="30" as="geometry" />
        </mxCell>
        <mxCell id="x7l14iwA549RfiOkNvGw-156" value="D1" style="text;html=1;align=center;verticalAlign=middle;resizable=0;points=[];autosize=1;strokeColor=none;fillColor=none;" vertex="1" parent="x7l14iwA549RfiOkNvGw-157">
          <mxGeometry y="0.009999999999990905" width="40" height="30" as="geometry" />
        </mxCell>
        <mxCell id="x7l14iwA549RfiOkNvGw-137" value="timecard" style="text;html=1;align=center;verticalAlign=middle;resizable=0;points=[];autosize=1;strokeColor=none;fillColor=none;" vertex="1" parent="x7l14iwA549RfiOkNvGw-157">
          <mxGeometry x="50" width="70" height="30" as="geometry" />
        </mxCell>
        <mxCell id="x7l14iwA549RfiOkNvGw-164" value="" style="group" vertex="1" connectable="0" parent="1">
          <mxGeometry x="290" y="1789.99" width="145.005" height="30.00999999999999" as="geometry" />
        </mxCell>
        <mxCell id="x7l14iwA549RfiOkNvGw-165" value="" style="shape=partialRectangle;whiteSpace=wrap;html=1;top=0;bottom=0;fillColor=none;rotation=-90;" vertex="1" parent="x7l14iwA549RfiOkNvGw-164">
          <mxGeometry x="60.629999999999995" y="-54.36999999999989" width="30" height="138.75" as="geometry" />
        </mxCell>
        <mxCell id="x7l14iwA549RfiOkNvGw-166" value="" style="shape=partialRectangle;whiteSpace=wrap;html=1;right=0;top=0;bottom=0;fillColor=none;routingCenterX=-0.5;" vertex="1" parent="x7l14iwA549RfiOkNvGw-164">
          <mxGeometry x="5" width="20" height="30" as="geometry" />
        </mxCell>
        <mxCell id="x7l14iwA549RfiOkNvGw-167" value="" style="shape=partialRectangle;whiteSpace=wrap;html=1;right=0;top=0;bottom=0;fillColor=none;routingCenterX=-0.5;" vertex="1" parent="x7l14iwA549RfiOkNvGw-164">
          <mxGeometry x="40" width="30" height="30" as="geometry" />
        </mxCell>
        <mxCell id="x7l14iwA549RfiOkNvGw-168" value="D2" style="text;html=1;align=center;verticalAlign=middle;resizable=0;points=[];autosize=1;strokeColor=none;fillColor=none;" vertex="1" parent="x7l14iwA549RfiOkNvGw-164">
          <mxGeometry y="0.009999999999990905" width="40" height="30" as="geometry" />
        </mxCell>
        <mxCell id="x7l14iwA549RfiOkNvGw-169" value="user_info" style="text;html=1;align=center;verticalAlign=middle;resizable=0;points=[];autosize=1;strokeColor=none;fillColor=none;" vertex="1" parent="x7l14iwA549RfiOkNvGw-164">
          <mxGeometry x="50" width="70" height="30" as="geometry" />
        </mxCell>
        <mxCell id="x7l14iwA549RfiOkNvGw-170" value="" style="group" vertex="1" connectable="0" parent="1">
          <mxGeometry x="490" y="1791" width="145.005" height="30.00999999999999" as="geometry" />
        </mxCell>
        <mxCell id="x7l14iwA549RfiOkNvGw-171" value="" style="shape=partialRectangle;whiteSpace=wrap;html=1;top=0;bottom=0;fillColor=none;rotation=-90;" vertex="1" parent="x7l14iwA549RfiOkNvGw-170">
          <mxGeometry x="60.629999999999995" y="-54.36999999999989" width="30" height="138.75" as="geometry" />
        </mxCell>
        <mxCell id="x7l14iwA549RfiOkNvGw-172" value="" style="shape=partialRectangle;whiteSpace=wrap;html=1;right=0;top=0;bottom=0;fillColor=none;routingCenterX=-0.5;" vertex="1" parent="x7l14iwA549RfiOkNvGw-170">
          <mxGeometry x="5" width="20" height="30" as="geometry" />
        </mxCell>
        <mxCell id="x7l14iwA549RfiOkNvGw-173" value="" style="shape=partialRectangle;whiteSpace=wrap;html=1;right=0;top=0;bottom=0;fillColor=none;routingCenterX=-0.5;" vertex="1" parent="x7l14iwA549RfiOkNvGw-170">
          <mxGeometry x="40" width="30" height="30" as="geometry" />
        </mxCell>
        <mxCell id="x7l14iwA549RfiOkNvGw-174" value="D3" style="text;html=1;align=center;verticalAlign=middle;resizable=0;points=[];autosize=1;strokeColor=none;fillColor=none;" vertex="1" parent="x7l14iwA549RfiOkNvGw-170">
          <mxGeometry y="0.009999999999990905" width="40" height="30" as="geometry" />
        </mxCell>
        <mxCell id="x7l14iwA549RfiOkNvGw-175" value="project_info" style="text;html=1;align=center;verticalAlign=middle;resizable=0;points=[];autosize=1;strokeColor=none;fillColor=none;" vertex="1" parent="x7l14iwA549RfiOkNvGw-170">
          <mxGeometry x="40" width="90" height="30" as="geometry" />
        </mxCell>
        <mxCell id="x7l14iwA549RfiOkNvGw-176" value="TimeCard数据库" style="rounded=0;whiteSpace=wrap;html=1;" vertex="1" parent="1">
          <mxGeometry x="690" y="1490" width="160" height="160" as="geometry" />
        </mxCell>
        <mxCell id="x7l14iwA549RfiOkNvGw-177" value="时间卡信息" style="text;html=1;align=center;verticalAlign=middle;resizable=0;points=[];autosize=1;strokeColor=none;fillColor=none;" vertex="1" parent="1">
          <mxGeometry x="517.5" y="1490" width="80" height="30" as="geometry" />
        </mxCell>
        <mxCell id="x7l14iwA549RfiOkNvGw-178" value="工作报表信息" style="text;html=1;align=center;verticalAlign=middle;resizable=0;points=[];autosize=1;strokeColor=none;fillColor=none;" vertex="1" parent="1">
          <mxGeometry x="519" y="1679" width="100" height="30" as="geometry" />
        </mxCell>
        <mxCell id="x7l14iwA549RfiOkNvGw-179" value="员工个人信息" style="text;html=1;align=center;verticalAlign=middle;resizable=0;points=[];autosize=1;strokeColor=none;fillColor=none;" vertex="1" parent="1">
          <mxGeometry x="519" y="1865" width="100" height="30" as="geometry" />
        </mxCell>
        <mxCell id="x7l14iwA549RfiOkNvGw-180" value="时间卡信息" style="text;html=1;align=center;verticalAlign=middle;resizable=0;points=[];autosize=1;strokeColor=none;fillColor=none;" vertex="1" parent="1">
          <mxGeometry x="365" y="1560" width="80" height="30" as="geometry" />
        </mxCell>
        <mxCell id="x7l14iwA549RfiOkNvGw-181" value="员工个人信息" style="text;html=1;align=center;verticalAlign=middle;resizable=0;points=[];autosize=1;strokeColor=none;fillColor=none;" vertex="1" parent="1">
          <mxGeometry x="355" y="1826" width="100" height="30" as="geometry" />
        </mxCell>
        <mxCell id="x7l14iwA549RfiOkNvGw-182" value="项目信息" style="text;html=1;align=center;verticalAlign=middle;resizable=0;points=[];autosize=1;strokeColor=none;fillColor=none;" vertex="1" parent="1">
          <mxGeometry x="470" y="1730" width="70" height="30" as="geometry" />
        </mxCell>
        <mxCell id="x7l14iwA549RfiOkNvGw-184" style="edgeStyle=orthogonalEdgeStyle;rounded=0;orthogonalLoop=1;jettySize=auto;html=1;exitX=1;exitY=0.5;exitDx=0;exitDy=0;entryX=0.466;entryY=1.011;entryDx=0;entryDy=0;entryPerimeter=0;" edge="1" parent="1" source="x7l14iwA549RfiOkNvGw-119" target="x7l14iwA549RfiOkNvGw-176">
          <mxGeometry relative="1" as="geometry" />
        </mxCell>
        <mxCell id="x7l14iwA549RfiOkNvGw-185" value="" style="endArrow=classic;startArrow=classic;html=1;rounded=0;exitX=0.5;exitY=0;exitDx=0;exitDy=0;entryX=0;entryY=0.5;entryDx=0;entryDy=0;" edge="1" parent="1" source="x7l14iwA549RfiOkNvGw-119" target="x7l14iwA549RfiOkNvGw-165">
          <mxGeometry width="50" height="50" relative="1" as="geometry">
            <mxPoint x="550" y="1780" as="sourcePoint" />
            <mxPoint x="600" y="1730" as="targetPoint" />
          </mxGeometry>
        </mxCell>
        <mxCell id="x7l14iwA549RfiOkNvGw-187" style="edgeStyle=orthogonalEdgeStyle;rounded=0;orthogonalLoop=1;jettySize=auto;html=1;exitX=1;exitY=0.5;exitDx=0;exitDy=0;entryX=0.013;entryY=0.142;entryDx=0;entryDy=0;entryPerimeter=0;" edge="1" parent="1" source="x7l14iwA549RfiOkNvGw-113" target="x7l14iwA549RfiOkNvGw-176">
          <mxGeometry relative="1" as="geometry" />
        </mxCell>
        <mxCell id="x7l14iwA549RfiOkNvGw-193" value="" style="endArrow=classic;startArrow=classic;html=1;rounded=0;exitX=1;exitY=0.5;exitDx=0;exitDy=0;entryX=0.5;entryY=1;entryDx=0;entryDy=0;" edge="1" parent="1" source="x7l14iwA549RfiOkNvGw-149" target="x7l14iwA549RfiOkNvGw-113">
          <mxGeometry width="50" height="50" relative="1" as="geometry">
            <mxPoint x="550" y="1780" as="sourcePoint" />
            <mxPoint x="600" y="1730" as="targetPoint" />
          </mxGeometry>
        </mxCell>
        <mxCell id="x7l14iwA549RfiOkNvGw-194" value="时间卡信息" style="text;html=1;align=center;verticalAlign=middle;resizable=0;points=[];autosize=1;strokeColor=none;fillColor=none;" vertex="1" parent="1">
          <mxGeometry x="369" y="1634" width="80" height="30" as="geometry" />
        </mxCell>
        <mxCell id="x7l14iwA549RfiOkNvGw-195" value="" style="endArrow=classic;html=1;rounded=0;exitX=1;exitY=0.5;exitDx=0;exitDy=0;entryX=0.5;entryY=1;entryDx=0;entryDy=0;" edge="1" parent="1" source="x7l14iwA549RfiOkNvGw-165" target="x7l14iwA549RfiOkNvGw-123">
          <mxGeometry width="50" height="50" relative="1" as="geometry">
            <mxPoint x="550" y="1780" as="sourcePoint" />
            <mxPoint x="600" y="1730" as="targetPoint" />
          </mxGeometry>
        </mxCell>
        <mxCell id="x7l14iwA549RfiOkNvGw-196" value="" style="endArrow=classic;html=1;rounded=0;exitX=0;exitY=0.5;exitDx=0;exitDy=0;entryX=0.5;entryY=0;entryDx=0;entryDy=0;" edge="1" parent="1" source="x7l14iwA549RfiOkNvGw-149" target="x7l14iwA549RfiOkNvGw-123">
          <mxGeometry width="50" height="50" relative="1" as="geometry">
            <mxPoint x="550" y="1780" as="sourcePoint" />
            <mxPoint x="600" y="1730" as="targetPoint" />
          </mxGeometry>
        </mxCell>
        <mxCell id="x7l14iwA549RfiOkNvGw-197" value="" style="endArrow=classic;html=1;rounded=0;exitX=1;exitY=0.5;exitDx=0;exitDy=0;entryX=1;entryY=0.75;entryDx=0;entryDy=0;" edge="1" parent="1" source="x7l14iwA549RfiOkNvGw-171" target="x7l14iwA549RfiOkNvGw-123">
          <mxGeometry width="50" height="50" relative="1" as="geometry">
            <mxPoint x="550" y="1780" as="sourcePoint" />
            <mxPoint x="600" y="1730" as="targetPoint" />
            <Array as="points">
              <mxPoint x="566" y="1727" />
            </Array>
          </mxGeometry>
        </mxCell>
        <mxCell id="x7l14iwA549RfiOkNvGw-198" value="员工个人信息" style="text;html=1;align=center;verticalAlign=middle;resizable=0;points=[];autosize=1;strokeColor=none;fillColor=none;" vertex="1" parent="1">
          <mxGeometry x="359" y="1754" width="100" height="30" as="geometry" />
        </mxCell>
      </root>
    </mxGraphModel>
  </diagram>
</mxfile>
